<?xml version="1.0" encoding="UTF-8"?><svg id="Bischof" xmlns="http://www.w3.org/2000/svg" viewBox="0 0 100 100"><defs><style>.cls-1{fill:#333;}.cls-2{fill:#4d4d4d;}.cls-3{fill:#ccc;}.cls-4{fill:#666;}.cls-5{fill:#999;}.cls-6{fill:#b2b2b2;}</style></defs><polygon class="cls-2" points="50 95 85 95 85 86 70 86 70 83 80 83 80 78 50 78 20 78 20 83 30 83 30 86 15 86 15 95 50 95"/><polygon points="30 83 70 83 70 85 30 83"/><polygon class="cls-3" points="15 86 85 86 85 89 15 86"/><polygon class="cls-1" points="20 78 80 78 80 80 20 78"/><polygon class="cls-6" points="30 78 40 60 43 50 42 36 36 34 37 32 63 32 64 34 58 36 57 50 60 60 70 78 30 78"/><polyline class="cls-6" points="46 32 43 25 45 12 50 7 55 12 57 25 54 32"/><polygon class="cls-2" points="50 95 85 95 85 86 70 86 70 83 80 83 80 78 50 78 20 78 20 83 30 83 30 86 15 86 15 95 50 95"/><polygon points="30 83 70 83 70 85 30 83"/><polygon class="cls-3" points="15 86 85 86 85 89 15 86"/><polygon class="cls-1" points="20 78 80 78 80 80 20 78"/><polygon points="64 34 58 36 39 35 36 34 64 34"/><polygon class="cls-5" points="37 32 64 34 36 34 37 32"/><polygon class="cls-4" points="63 32 37 32 64 34 63 32"/><polygon class="cls-1" points="70 78 66 75 57 60 54 49 54 40 42 36 39 35 58 36 57 50 60 60 70 78"/><polygon class="cls-5" points="40 60 30 78 34 78 41 60 43 50 40 60"/><polygon class="cls-3" points="47 10 45 12 43 25 47 13 47 10"/><polygon class="cls-3" points="43 25 48 32 46 32 43 25"/><polygon class="cls-1" points="50 7 55 12 57 25 53 13 50 7"/><polygon points="47 10 47 13 50 15 50 7 47 10"/><polygon class="cls-1" points="57 25 54 32 52 32 57 25"/></svg>