<?xml version="1.0" encoding="UTF-8"?><svg id="BG" xmlns="http://www.w3.org/2000/svg" viewBox="0 0 1920 1080"><defs><style>.cls-1{fill:#f2f2f2;}.cls-2{fill:#4d4d4d;}.cls-3{fill:#b2b2b2;}.cls-4{fill:#666;}.cls-5{fill:#333;}.cls-6{fill:#ccc;}</style></defs><rect id="Background" class="cls-1" width="1920" height="1080"/><path class="cls-2" d="M1441.47,326.29l127.09-177.78s35.71,10.21,74.48,21.84l77.95-47.18-11.94,67.7,49.19,17.2-22.84,30.79,153.45,166.32-50.14,86.9-50.65-8.93-26.32-48.16-72.99-30.28-7.44,42.21,85.92,154.41-43.18,96.83-45.18,9.44-13.4,75.97-253.24-44.65,5.95-33.76-70.02-47.16,8.93-50.65-50.65-8.93,135.02-272.12Z"/><polygon points="1678.86 707.59 1418.18 705.14 1413.72 730.47 1677.37 716.03 1678.86 707.59"/><polygon class="cls-5" points="1688.75 404.71 1681.31 446.91 1740.91 553.16 1676.35 524.37 1646.05 449.4 1632.15 429.54 1604.34 389.82 1607.31 372.94 1688.75 404.71"/><polygon class="cls-6" points="1888.85 405.17 1838.71 492.07 1870.48 410.64 1764.7 270.14 1888.85 405.17"/><polygon class="cls-5" points="1607.31 372.94 1597.87 327.76 1597.38 379.89 1604.34 389.82 1607.31 372.94"/><polygon class="cls-6" points="1676.35 524.37 1708.14 590.9 1767.23 601.32 1740.91 553.16 1676.35 524.37"/><polygon class="cls-4" points="1708.14 590.9 1664.96 687.73 1724.04 698.15 1767.23 601.32 1708.14 590.9"/><polygon class="cls-5" points="1664.96 687.73 1348.17 657.98 1418.18 705.14 1678.86 707.59 1724.04 698.15 1664.96 687.73"/><polygon class="cls-5" points="1758.24 208.07 1568.55 148.51 1441.47 326.29 1306.45 598.41 1337.73 569.11 1458.35 329.27 1580.97 176.81 1758.24 208.07"/><polygon class="cls-5" points="1720.98 123.17 1643.04 170.35 1718.01 140.05 1720.98 123.17"/><polygon class="cls-2" points="1513.54 904.74 1218.1 852.64 1231.5 776.67 1358.12 799 1362.58 773.67 1278.17 758.79 1285.61 716.58 1538.85 761.24 1792.08 805.89 1784.64 848.09 1700.23 833.21 1695.76 858.53 1822.38 880.86 1808.99 956.83 1513.54 904.74"/><polygon points="1700.23 833.21 1362.58 773.67 1359.6 790.56 1700.23 833.21"/><polygon class="cls-6" points="1822.38 880.86 1231.5 776.67 1227.03 801.99 1822.38 880.86"/><polygon class="cls-5" points="1792.08 805.89 1285.61 716.58 1282.63 733.47 1792.08 805.89"/><path class="cls-3" d="M478.53,326.29l-127.09-177.78s-35.71,10.21-74.48,21.84l-77.95-47.18,11.94,67.7-49.19,17.2,22.84,30.79L31.15,405.18l50.14,86.9,50.65-8.93,26.32-48.16,72.99-30.28,7.44,42.21-85.92,154.41,43.18,96.83,45.18,9.44,13.4,75.97,253.24-44.65-5.95-33.76,70.02-47.16-8.93-50.65,50.65-8.93-135.02-272.12Z"/><polygon points="241.14 707.59 501.82 705.14 506.28 730.47 242.63 716.03 241.14 707.59"/><polygon class="cls-5" points="231.25 404.71 238.69 446.91 179.09 553.16 243.65 524.37 273.95 449.4 287.85 429.54 315.66 389.82 312.69 372.94 231.25 404.71"/><polygon class="cls-6" points="31.15 405.18 81.29 492.07 49.52 410.64 155.3 270.14 31.15 405.18"/><polygon class="cls-5" points="312.69 372.94 322.13 327.76 322.62 379.89 315.66 389.82 312.69 372.94"/><polygon class="cls-6" points="243.65 524.37 211.86 590.9 152.77 601.32 179.09 553.16 243.65 524.37"/><polygon class="cls-4" points="211.86 590.9 255.04 687.73 195.96 698.15 152.77 601.32 211.86 590.9"/><polygon class="cls-5" points="255.04 687.73 571.83 657.98 501.82 705.14 241.14 707.59 195.96 698.15 255.04 687.73"/><polygon class="cls-5" points="161.76 208.07 351.45 148.51 478.53 326.29 613.55 598.41 582.27 569.11 461.65 329.27 339.03 176.81 161.76 208.07"/><polygon class="cls-5" points="199.01 123.17 276.96 170.35 201.99 140.05 199.01 123.17"/><polygon class="cls-2" points="406.46 904.74 701.9 852.64 688.5 776.67 561.88 799 557.42 773.67 641.83 758.79 634.39 716.58 381.15 761.24 127.92 805.89 135.36 848.09 219.77 833.21 224.24 858.53 97.62 880.86 111.01 956.83 406.46 904.74"/><polygon points="219.77 833.21 557.42 773.67 560.4 790.56 219.77 833.21"/><polygon class="cls-6" points="97.62 880.86 688.5 776.67 692.97 801.99 97.62 880.86"/><polygon class="cls-5" points="127.92 805.89 634.39 716.58 637.37 733.47 127.92 805.89"/></svg>