<?xml version="1.0" encoding="UTF-8"?><svg id="Bauer" xmlns="http://www.w3.org/2000/svg" viewBox="0 0 100 100"><defs><style>.cls-1{fill:#333;}.cls-2{fill:#4d4d4d;}.cls-3{fill:#ccc;}.cls-4{fill:#666;}.cls-5{fill:#999;}</style></defs><polygon class="cls-2" points="50 95 85 95 85 86 70 86 70 83 80 83 80 78 50 78 20 78 20 83 30 83 30 86 15 86 15 95 50 95"/><polygon points="30 83 70 83 70 85 30 83"/><polygon class="cls-3" points="15 86 85 86 85 89 15 86"/><polygon class="cls-1" points="20 78 80 78 80 80 20 78"/><polyline class="cls-2" points="50 38 37 38 35 40 43 42 43 51 39 65 30 78 70 78 61 65 57 51 57 42 65 40 63 38 55 38 55 38 50 38 45 38 40 33 42 25 47 22 50 21 53 22 58 25 60 33 55 38"/><polygon class="cls-5" points="37 38 65 40 35 40 37 38"/><polygon class="cls-4" points="63 38 37 38 65 40 63 38"/><polygon points="57 42 35 40 65 40 57 42"/><polygon class="cls-1" points="43 42 54 45 54 52 59 66 68 77 70 78 61 65 57 51 57 42 35 40 43 42"/><polygon class="cls-3" points="43 51 41 65 33 77 30 78 39 65 43 51"/><polygon class="cls-3" points="50 21 47 22 42 25 40 33 43 26 47 23 50 21"/><polygon class="cls-1" points="58 25 53 22 50 21 57 26 60 33 58 25"/><polygon class="cls-1" points="40 33 48 38 45 38 40 33"/><polygon points="60 33 55 38 52 38 60 33"/></svg>