<?xml version="1.0" encoding="UTF-8"?><svg id="Dame" xmlns="http://www.w3.org/2000/svg" viewBox="0 0 100 100"><defs><style>.cls-1{fill:#333;}.cls-2{fill:#f2f2f2;}.cls-3{fill:#4d4d4d;}.cls-4{fill:#ccc;}.cls-5{fill:#666;}.cls-6{fill:#999;}.cls-7{fill:#b2b2b2;}</style></defs><polygon class="cls-7" points="70 78 60 60 57 50 58 36 64 34 63 32 60 32 70 10 55 20 50 5 45 20 30 10 40 32 37 32 36 34 42 36 43 50 40 60 30 78 70 78"/><polygon class="cls-3" points="50 95 85 95 85 86 70 86 70 83 80 83 80 78 50 78 20 78 20 83 30 83 30 86 15 86 15 95 50 95"/><polygon points="30 83 70 83 70 85 30 83"/><polygon class="cls-4" points="15 86 85 86 85 89 15 86"/><polygon class="cls-1" points="20 78 80 78 80 80 20 78"/><polygon points="64 34 58 36 39 35 36 34 64 34"/><polygon class="cls-6" points="37 32 64 34 36 34 37 32"/><polygon class="cls-5" points="63 32 37 32 64 34 63 32"/><polygon class="cls-4" points="30 10 40 32 43 32 30 10"/><polygon class="cls-1" points="60 32 70 10 57 32 60 32"/><polygon class="cls-2" points="50 5 48 19 45 20 50 5"/><polygon class="cls-1" points="50 5 55 20 52 19 50 5"/><polygon class="cls-1" points="70 78 66 75 57 60 54 49 55 40 42 36 39 35 58 36 57 50 60 60 70 78"/><polygon class="cls-6" points="40 60 30 78 34 78 41 60 43 50 40 60"/></svg>