<?xml version="1.0" encoding="UTF-8"?><svg id="König" xmlns="http://www.w3.org/2000/svg" viewBox="0 0 100 100"><defs><style>.cls-1{fill:#333;}.cls-2{fill:#4d4d4d;}.cls-3{fill:#ccc;}.cls-4{fill:#666;}.cls-5{fill:#999;}.cls-6{fill:#b2b2b2;}</style></defs><polygon class="cls-2" points="50 95 85 95 85 86 70 86 70 83 80 83 80 78 50 78 20 78 20 83 30 83 30 86 15 86 15 95 50 95"/><polygon points="30 83 70 83 70 85 30 83"/><polygon class="cls-3" points="15 86 85 86 85 89 15 86"/><polygon class="cls-1" points="20 78 80 78 80 80 20 78"/><polygon class="cls-6" points="30 78 70 78 60 60 57 50 58 36 64 34 63 32 60 32 60 15 55 23 54 23 51 17 55 19 55 13 51 15 53 11 47 11 49 15 45 13 45 19 49 17 46 23 45 23 40 15 40 32 37 32 36 34 42 36 43 50 40 60 30 78"/><polygon class="cls-2" points="50 95 85 95 85 86 70 86 70 83 80 83 80 78 50 78 20 78 20 83 30 83 30 86 15 86 15 95 50 95"/><polygon points="30 83 70 83 70 85 30 83"/><polygon class="cls-3" points="15 86 85 86 85 89 15 86"/><polygon class="cls-1" points="20 78 80 78 80 80 20 78"/><polygon points="64 34 58 36 39 35 36 34 64 34"/><polygon class="cls-5" points="37 32 64 34 36 34 37 32"/><polygon class="cls-4" points="63 32 37 32 64 34 63 32"/><polygon class="cls-1" points="70 78 66 75 57 60 54 49 54 40 42 36 39 35 58 36 57 50 60 60 70 78"/><polygon class="cls-5" points="40 60 30 78 34 78 41 60 43 50 40 60"/><polygon class="cls-3" points="40 15 40 32 42 32 40 15"/><polygon class="cls-3" points="49 17 48 22 46 23 49 17"/><polygon class="cls-3" points="47 11 49 15 48 11 47 11"/><polygon class="cls-3" points="45 13 49 15 45 14 45 13"/><polygon class="cls-3" points="51 15 55 14 55 13 51 15"/><polygon class="cls-4" points="60 15 60 32 58 32 60 15"/><polygon class="cls-4" points="45 19 49 17 45 18 45 19"/><polygon class="cls-4" points="51 17 54 23 52 22 51 17"/><polygon class="cls-4" points="51 17 55 18 55 19 51 17"/><polygon class="cls-4" points="51 15 53 11 52 11 51 15"/></svg>