<?xml version="1.0" encoding="UTF-8"?><svg id="Pferd" xmlns="http://www.w3.org/2000/svg" viewBox="0 0 100 100"><defs><style>.cls-1{fill:#333;}.cls-2{fill:#4d4d4d;}.cls-3{fill:#ccc;}.cls-4{fill:#666;}.cls-5{fill:#b2b2b2;}</style></defs><path class="cls-5" d="M70,30l-11-23s-4.31.45-9,1l-8-7v8.02l-6,.98,2,4-21,16,4,11h6l4-5,9-2v5l-13,16,3,12,5,2v9h30v-4l9-4v-6h6l-10-34Z"/><polygon points="35 69 65 74 65 77 35 70 35 69"/><polygon class="cls-1" points="40 34 40 39 31 50 39 48 44 40 46 38 50 34 50 32 40 34"/><polygon class="cls-3" points="17 30 21 41 19 31 34 17 17 30"/><polygon class="cls-1" points="50 32 52 27 51 33 50 34 50 32"/><polygon class="cls-3" points="39 48 34 55 27 55 31 50 39 48"/><polygon class="cls-4" points="34 55 37 67 30 67 27 55 34 55"/><polygon class="cls-1" points="37 67 74 70 65 74 35 69 30 67 37 67"/><polygon class="cls-1" points="36 10 59 7 70 30 80 64 77 60 68 30 57 10 36 10"/><polygon class="cls-1" points="42 1 50 8 42 3 42 1"/><polygon class="cls-2" points="50 95 85 95 85 86 70 86 70 83 80 83 80 78 50 78 20 78 20 83 30 83 30 86 15 86 15 95 50 95"/><polygon points="30 83 70 83 70 85 30 83"/><polygon class="cls-3" points="15 86 85 86 85 89 15 86"/><polygon class="cls-1" points="20 78 80 78 80 80 20 78"/></svg>