<?xml version="1.0" encoding="UTF-8"?><svg id="Turm" xmlns="http://www.w3.org/2000/svg" viewBox="0 0 100 100"><defs><style>.cls-1{fill:#333;}.cls-2{fill:#4d4d4d;}.cls-3{fill:#ccc;}.cls-4{fill:#666;}.cls-5{fill:#b2b2b2;}</style></defs><polygon class="cls-2" points="50 95 85 95 85 86 70 86 70 83 80 83 80 78 50 78 20 78 20 83 30 83 30 86 15 86 15 95 50 95"/><polygon points="30 83 70 83 70 85 30 83"/><polygon class="cls-3" points="15 86 85 86 85 89 15 86"/><polygon class="cls-1" points="20 78 80 78 80 80 20 78"/><polygon class="cls-5" points="60 60 58 50 58 38 66 32 68 28 65 28 65 15 61 20 58 20 58 14 52 14 52 20 50 20 48 20 48 14 42 14 42 20 39 20 35 15 35 28 32 28 34 32 42 38 42 50 40 60 30 78 50 78 70 78 60 60"/><polygon class="cls-3" points="30 78 40 60 42 50 41 60 34 78 30 78"/><polygon class="cls-1" points="70 78 66 76 57 60 54 49 51 43 42 38 58 38 58 50 60 60 70 78"/><polygon class="cls-4" points="66 32 68 28 32 28 66 32"/><polygon class="cls-3" points="34 32 66 32 32 28 34 32"/><polygon points="58 38 66 32 34 32 34 32 58 38"/><polygon class="cls-1" points="42 38 58 38 34 32 42 38"/><polygon class="cls-3" points="35 15 36 28 35 28 35 15"/><polygon class="cls-1" points="65 15 64 28 65 28 65 15"/><polygon class="cls-1" points="46 14 48 14 48 28 46 14"/><polygon class="cls-3" points="42 14 44 14 42 28 42 14"/><polygon class="cls-3" points="52 14 54 14 52 28 52 14"/><polygon class="cls-1" points="58 14 56 14 58 28 58 14"/></svg>